<mxfile host="app.diagrams.net" modified="2022-02-17T14:15:36.548Z" agent="5.0 (Windows NT 10.0; Win64; x64) AppleWebKit/537.36 (KHTML, like Gecko) Chrome/98.0.4758.80 Safari/537.36 Edg/98.0.1108.50" etag="8lo8L8gK1hFBpsqmtQHS" version="16.5.6" type="github">
  <diagram id="m1ksbPN5bti-xOAV3YIH" name="Page-1">
    <mxGraphModel dx="813" dy="431" grid="0" gridSize="10" guides="1" tooltips="1" connect="1" arrows="1" fold="1" page="1" pageScale="1" pageWidth="1169" pageHeight="827" background="#37383E" math="0" shadow="0">
      <root>
        <mxCell id="0" />
        <mxCell id="1" parent="0" />
        <mxCell id="L-0xGDhU7ctL9wH_HWe9-8" value="Actor" style="shape=umlActor;verticalLabelPosition=bottom;verticalAlign=top;html=1;outlineConnect=0;rounded=0;sketch=0;fontColor=#1A1A1A;strokeColor=#FFFFFF;fillColor=#EEEEEE;" vertex="1" parent="1">
          <mxGeometry x="64" y="253" width="30" height="60" as="geometry" />
        </mxCell>
        <mxCell id="L-0xGDhU7ctL9wH_HWe9-10" value="" style="swimlane;startSize=0;rounded=0;sketch=0;fontColor=#1A1A1A;strokeColor=#FFFFFF;fillColor=#EEEEEE;" vertex="1" parent="1">
          <mxGeometry x="159" y="18" width="617" height="584" as="geometry">
            <mxRectangle x="159" y="18" width="50" height="44" as="alternateBounds" />
          </mxGeometry>
        </mxCell>
        <mxCell id="L-0xGDhU7ctL9wH_HWe9-4" value="Create" style="rounded=0;whiteSpace=wrap;html=1;sketch=0;fontColor=#1A1A1A;strokeColor=#FFFFFF;fillColor=#EEEEEE;" vertex="1" parent="L-0xGDhU7ctL9wH_HWe9-10">
          <mxGeometry x="153" y="53" width="120" height="60" as="geometry" />
        </mxCell>
        <mxCell id="L-0xGDhU7ctL9wH_HWe9-5" value="read" style="rounded=0;whiteSpace=wrap;html=1;sketch=0;fontColor=#1A1A1A;strokeColor=#FFFFFF;fillColor=#EEEEEE;" vertex="1" parent="L-0xGDhU7ctL9wH_HWe9-10">
          <mxGeometry x="153" y="172" width="120" height="60" as="geometry" />
        </mxCell>
        <mxCell id="L-0xGDhU7ctL9wH_HWe9-6" value="update" style="rounded=0;whiteSpace=wrap;html=1;sketch=0;fontColor=#1A1A1A;strokeColor=#FFFFFF;fillColor=#EEEEEE;" vertex="1" parent="L-0xGDhU7ctL9wH_HWe9-10">
          <mxGeometry x="153" y="292" width="120" height="60" as="geometry" />
        </mxCell>
        <mxCell id="L-0xGDhU7ctL9wH_HWe9-7" value="delete" style="rounded=0;whiteSpace=wrap;html=1;sketch=0;fontColor=#1A1A1A;strokeColor=#FFFFFF;fillColor=#EEEEEE;" vertex="1" parent="L-0xGDhU7ctL9wH_HWe9-10">
          <mxGeometry x="153" y="417" width="120" height="60" as="geometry" />
        </mxCell>
        <mxCell id="L-0xGDhU7ctL9wH_HWe9-16" value="DB" style="shape=cylinder3;whiteSpace=wrap;html=1;boundedLbl=1;backgroundOutline=1;size=15;rounded=0;sketch=0;fontColor=#1A1A1A;strokeColor=#FFFFFF;fillColor=#EEEEEE;" vertex="1" parent="L-0xGDhU7ctL9wH_HWe9-10">
          <mxGeometry x="485" y="184" width="93" height="137" as="geometry" />
        </mxCell>
        <mxCell id="L-0xGDhU7ctL9wH_HWe9-17" value="" style="endArrow=classic;startArrow=none;html=1;rounded=1;sketch=0;fontColor=#FFFFFF;strokeColor=#FFFFFF;curved=0;exitX=1;exitY=0.5;exitDx=0;exitDy=0;entryX=0;entryY=0.5;entryDx=0;entryDy=0;entryPerimeter=0;startFill=0;" edge="1" parent="L-0xGDhU7ctL9wH_HWe9-10" source="L-0xGDhU7ctL9wH_HWe9-4" target="L-0xGDhU7ctL9wH_HWe9-16">
          <mxGeometry width="50" height="50" relative="1" as="geometry">
            <mxPoint x="347" y="136" as="sourcePoint" />
            <mxPoint x="397" y="86" as="targetPoint" />
          </mxGeometry>
        </mxCell>
        <mxCell id="L-0xGDhU7ctL9wH_HWe9-20" value="" style="endArrow=classic;startArrow=none;html=1;rounded=1;sketch=0;fontColor=#FFFFFF;strokeColor=#FFFFFF;curved=0;entryX=0;entryY=0.5;entryDx=0;entryDy=0;entryPerimeter=0;startFill=0;exitX=1;exitY=0.5;exitDx=0;exitDy=0;" edge="1" parent="L-0xGDhU7ctL9wH_HWe9-10" source="L-0xGDhU7ctL9wH_HWe9-5" target="L-0xGDhU7ctL9wH_HWe9-16">
          <mxGeometry width="50" height="50" relative="1" as="geometry">
            <mxPoint x="278" y="203" as="sourcePoint" />
            <mxPoint x="484.9999999999998" y="372.5000000000001" as="targetPoint" />
          </mxGeometry>
        </mxCell>
        <mxCell id="L-0xGDhU7ctL9wH_HWe9-19" value="" style="endArrow=classic;startArrow=none;html=1;rounded=1;sketch=0;fontColor=#FFFFFF;strokeColor=#FFFFFF;curved=0;exitX=1;exitY=0.5;exitDx=0;exitDy=0;entryX=0;entryY=0.5;entryDx=0;entryDy=0;entryPerimeter=0;startFill=0;" edge="1" parent="L-0xGDhU7ctL9wH_HWe9-10" source="L-0xGDhU7ctL9wH_HWe9-7" target="L-0xGDhU7ctL9wH_HWe9-16">
          <mxGeometry width="50" height="50" relative="1" as="geometry">
            <mxPoint x="282" y="426" as="sourcePoint" />
            <mxPoint x="493.9999999999998" y="595.5000000000001" as="targetPoint" />
          </mxGeometry>
        </mxCell>
        <mxCell id="L-0xGDhU7ctL9wH_HWe9-21" value="" style="endArrow=classic;startArrow=none;html=1;rounded=1;sketch=0;fontColor=#FFFFFF;strokeColor=#FFFFFF;curved=0;entryX=0;entryY=0.5;entryDx=0;entryDy=0;entryPerimeter=0;startFill=0;exitX=1;exitY=0.5;exitDx=0;exitDy=0;" edge="1" parent="L-0xGDhU7ctL9wH_HWe9-10" source="L-0xGDhU7ctL9wH_HWe9-6" target="L-0xGDhU7ctL9wH_HWe9-16">
          <mxGeometry width="50" height="50" relative="1" as="geometry">
            <mxPoint x="283" y="212" as="sourcePoint" />
            <mxPoint x="495" y="262.5" as="targetPoint" />
          </mxGeometry>
        </mxCell>
        <mxCell id="L-0xGDhU7ctL9wH_HWe9-12" value="" style="endArrow=classic;html=1;rounded=1;sketch=0;fontColor=#FFFFFF;strokeColor=#FFFFFF;curved=0;exitX=0.5;exitY=0.5;exitDx=0;exitDy=0;exitPerimeter=0;entryX=0;entryY=0.25;entryDx=0;entryDy=0;" edge="1" parent="1" source="L-0xGDhU7ctL9wH_HWe9-8" target="L-0xGDhU7ctL9wH_HWe9-4">
          <mxGeometry width="50" height="50" relative="1" as="geometry">
            <mxPoint x="88" y="271" as="sourcePoint" />
            <mxPoint x="138" y="221" as="targetPoint" />
          </mxGeometry>
        </mxCell>
        <mxCell id="L-0xGDhU7ctL9wH_HWe9-13" value="" style="endArrow=classic;html=1;rounded=1;sketch=0;fontColor=#FFFFFF;strokeColor=#FFFFFF;curved=0;exitX=0.5;exitY=0.5;exitDx=0;exitDy=0;exitPerimeter=0;entryX=0;entryY=0.5;entryDx=0;entryDy=0;" edge="1" parent="1" source="L-0xGDhU7ctL9wH_HWe9-8" target="L-0xGDhU7ctL9wH_HWe9-7">
          <mxGeometry width="50" height="50" relative="1" as="geometry">
            <mxPoint x="89" y="293" as="sourcePoint" />
            <mxPoint x="322" y="96" as="targetPoint" />
          </mxGeometry>
        </mxCell>
        <mxCell id="L-0xGDhU7ctL9wH_HWe9-14" value="" style="endArrow=classic;html=1;rounded=1;sketch=0;fontColor=#FFFFFF;strokeColor=#FFFFFF;curved=0;entryX=0;entryY=0.5;entryDx=0;entryDy=0;" edge="1" parent="1" target="L-0xGDhU7ctL9wH_HWe9-6">
          <mxGeometry width="50" height="50" relative="1" as="geometry">
            <mxPoint x="81" y="281" as="sourcePoint" />
            <mxPoint x="332" y="106" as="targetPoint" />
          </mxGeometry>
        </mxCell>
        <mxCell id="L-0xGDhU7ctL9wH_HWe9-15" value="" style="endArrow=classic;html=1;rounded=1;sketch=0;fontColor=#FFFFFF;strokeColor=#FFFFFF;curved=0;exitX=0.5;exitY=0.5;exitDx=0;exitDy=0;exitPerimeter=0;entryX=0;entryY=0.5;entryDx=0;entryDy=0;" edge="1" parent="1" source="L-0xGDhU7ctL9wH_HWe9-8" target="L-0xGDhU7ctL9wH_HWe9-5">
          <mxGeometry width="50" height="50" relative="1" as="geometry">
            <mxPoint x="109" y="313" as="sourcePoint" />
            <mxPoint x="342" y="116" as="targetPoint" />
          </mxGeometry>
        </mxCell>
      </root>
    </mxGraphModel>
  </diagram>
</mxfile>
